<svg width="20" height="21" viewBox="0 0 20 21" fill="none" xmlns="http://www.w3.org/2000/svg">
  <path d="M10 14.65C10.2722 14.65 10.5056 14.5667 10.7 14.4C10.8945 14.2333 10.9917 14.0333 10.9917 13.8C10.9917 13.5667 10.8945 13.3667 10.7 13.2C10.5056 13.0333 10.2722 12.95 10 12.95C9.7278 12.95 9.49446 13.0333 9.30002 13.2C9.10558 13.3667 9.00835 13.5667 9.00835 13.8C9.00835 14.0333 9.10558 14.2333 9.30002 14.4C9.49446 14.5667 9.7278 14.65 10 14.65ZM9.12502 11.3H10.875V6.12501H9.12502V11.3ZM10 20.975C7.2778 20.3917 5.04169 19.0375 3.29169 16.9125C1.54169 14.7875 0.666687 12.4583 0.666687 9.92501V3.97501L10 0.975006L19.3334 3.97501V9.92501C19.3334 12.4583 18.4584 14.7875 16.7084 16.9125C14.9584 19.0375 12.7222 20.3917 10 20.975Z" fill="#F03939"/>
  </svg>
  