<svg width="24" height="17" viewBox="0 0 24 17" fill="none" xmlns="http://www.w3.org/2000/svg">
  <path d="M12 17L-0.0250244 5C1.62498 3.4 3.47081 2.16667 5.51248 1.3C7.55414 0.433334 9.71664 0 12 0C14.2833 0 16.4375 0.433334 18.4625 1.3C20.4875 2.16667 22.3333 3.4 24 5L23.125 5.875C22.7083 5.44167 22.225 5.1125 21.675 4.8875C21.125 4.6625 20.525 4.55 19.875 4.55C18.575 4.55 17.4666 5.00833 16.55 5.925C15.6333 6.84167 15.175 7.95 15.175 9.25C15.175 9.9 15.2916 10.4875 15.525 11.0125C15.7583 11.5375 16.1 12.0167 16.55 12.45L12 17ZM19.875 16.25C19.625 16.25 19.4125 16.1625 19.2375 15.9875C19.0625 15.8125 18.975 15.6 18.975 15.35C18.975 15.1 19.0625 14.8875 19.2375 14.7125C19.4125 14.5375 19.625 14.45 19.875 14.45C20.125 14.45 20.3375 14.5375 20.5125 14.7125C20.6875 14.8875 20.775 15.1 20.775 15.35C20.775 15.6 20.6875 15.8125 20.5125 15.9875C20.3375 16.1625 20.125 16.25 19.875 16.25ZM19.3 13.4C19.3 12.7 19.3666 12.1417 19.5 11.725C19.6333 11.3083 19.9583 10.9083 20.475 10.525C20.9083 10.2083 21.2 9.92917 21.35 9.6875C21.5 9.44583 21.575 9.16667 21.575 8.85C21.575 8.41667 21.4291 8.0625 21.1375 7.7875C20.8458 7.5125 20.4666 7.375 20 7.375C19.5166 7.375 19.1166 7.49583 18.8 7.7375C18.4833 7.97917 18.225 8.30833 18.025 8.725L17 8.1C17.2666 7.46667 17.6583 6.96667 18.175 6.6C18.6916 6.23333 19.3 6.05 20 6.05C20.8 6.05 21.4708 6.30833 22.0125 6.825C22.5541 7.34167 22.825 7.99167 22.825 8.775C22.825 9.29167 22.7208 9.73333 22.5125 10.1C22.3041 10.4667 21.9833 10.825 21.55 11.175C21.0666 11.5583 20.7625 11.8875 20.6375 12.1625C20.5125 12.4375 20.45 12.85 20.45 13.4H19.3Z" fill="#989898"/>
  </svg>
  