<svg width="15" height="28" viewBox="0 0 15 28" fill="none" xmlns="http://www.w3.org/2000/svg">
  <path d="M5.70218 18.7895C5.72639 17.0211 5.92615 15.7316 6.30145 14.9211C6.67676 14.1105 7.38499 13.2263 8.42615 12.2684C9.4431 11.3351 10.224 10.4693 10.7688 9.67105C11.3136 8.87281 11.586 8.0193 11.586 7.11053C11.586 6.00526 11.2228 5.08421 10.4964 4.34737C9.76998 3.61053 8.75303 3.2421 7.44552 3.2421C6.18644 3.2421 5.21792 3.60439 4.53995 4.32895C3.86199 5.05351 3.36562 5.80877 3.05085 6.59474L0 5.23158C0.532688 3.78246 1.43462 2.54825 2.70581 1.52895C3.977 0.509649 5.5569 0 7.44552 0C9.86683 0 11.7312 0.681579 13.0387 2.04474C14.3462 3.40789 15 5.04737 15 6.96316C15 8.14211 14.7518 9.21053 14.2554 10.1684C13.7591 11.1263 12.9661 12.1333 11.8765 13.1895C10.6901 14.3439 9.97579 15.2281 9.73366 15.8421C9.49153 16.4561 9.35835 17.4386 9.33414 18.7895H5.70218ZM7.44552 28C6.74334 28 6.14407 27.7482 5.6477 27.2447C5.15133 26.7412 4.90315 26.1333 4.90315 25.4211C4.90315 24.7088 5.15133 24.1009 5.6477 23.5974C6.14407 23.0939 6.74334 22.8421 7.44552 22.8421C8.1477 22.8421 8.74697 23.0939 9.24334 23.5974C9.73971 24.1009 9.9879 24.7088 9.9879 25.4211C9.9879 26.1333 9.73971 26.7412 9.24334 27.2447C8.74697 27.7482 8.1477 28 7.44552 28Z" fill="#646464"/>
  </svg>
  