<svg width="41" height="42" viewBox="0 0 41 42" fill="none" xmlns="http://www.w3.org/2000/svg">
  <path d="M24.7875 34.8542L32.75 26.7292L30.5552 24.5417L26.3187 28.8646V18.9167H23.2562V28.8646L19.1219 24.5937L16.9271 26.8333L24.7875 34.8542ZM14.7833 23.0833H17.8458V13.1354L22.0312 17.3542L24.175 15.1667L16.3146 7.14582L8.35206 15.2708L10.5469 17.4583L14.7833 13.1354V23.0833ZM20.5 41.8333C17.7097 41.8333 15.0725 41.2864 12.5885 40.1927C10.1045 39.0989 7.93522 37.6059 6.08071 35.7135C4.22619 33.8212 2.763 31.6076 1.69113 29.0729C0.61925 26.5382 0.083313 23.8472 0.083313 21C0.083313 18.118 0.61925 15.4097 1.69113 12.875C2.763 10.3403 4.22619 8.13541 6.08071 6.26041C7.93522 4.38541 10.1045 2.90103 12.5885 1.80728C15.0725 0.713531 17.7097 0.166656 20.5 0.166656C23.3243 0.166656 25.9784 0.713531 28.4625 1.80728C30.9465 2.90103 33.1073 4.38541 34.9448 6.26041C36.7823 8.13541 38.237 10.3403 39.3088 12.875C40.3807 15.4097 40.9166 18.118 40.9166 21C40.9166 23.8472 40.3807 26.5382 39.3088 29.0729C38.237 31.6076 36.7823 33.8212 34.9448 35.7135C33.1073 37.6059 30.9465 39.0989 28.4625 40.1927C25.9784 41.2864 23.3243 41.8333 20.5 41.8333Z" fill="#6B6B6B"/>
  </svg>
  